<svg width="20" height="20" viewBox="0 0 20 20" fill="none" xmlns="http://www.w3.org/2000/svg">
<path d="M15.5917 6.84123C15.5142 6.76312 15.422 6.70112 15.3205 6.65882C15.2189 6.61651 15.11 6.59473 15 6.59473C14.89 6.59473 14.7811 6.61651 14.6795 6.65882C14.578 6.70112 14.4858 6.76312 14.4083 6.84123L10.5917 10.6579C10.5142 10.736 10.422 10.798 10.3205 10.8403C10.2189 10.8826 10.11 10.9044 10 10.9044C9.89 10.9044 9.78108 10.8826 9.67953 10.8403C9.57798 10.798 9.48581 10.736 9.40834 10.6579L5.59168 6.84123C5.51421 6.76312 5.42204 6.70112 5.32049 6.65882C5.21894 6.61651 5.11002 6.59473 5.00001 6.59473C4.89 6.59473 4.78108 6.61651 4.67953 6.65882C4.57798 6.70112 4.48581 6.76312 4.40834 6.84123C4.25313 6.99736 4.16602 7.20857 4.16602 7.42873C4.16602 7.64888 4.25313 7.86009 4.40834 8.01623L8.23334 11.8412C8.70209 12.3094 9.33751 12.5724 10 12.5724C10.6625 12.5724 11.2979 12.3094 11.7667 11.8412L15.5917 8.01623C15.7469 7.86009 15.834 7.64888 15.834 7.42873C15.834 7.20857 15.7469 6.99736 15.5917 6.84123Z" fill="#8247FF"/>
</svg>
