<svg width="24" height="24" viewBox="0 0 24 24" fill="none" xmlns="http://www.w3.org/2000/svg">
<path d="M18.7101 8.20986C18.6171 8.11613 18.5065 8.04174 18.3846 7.99097C18.2628 7.9402 18.1321 7.91406 18.0001 7.91406C17.868 7.91406 17.7373 7.9402 17.6155 7.99097C17.4936 8.04174 17.383 8.11613 17.2901 8.20986L12.7101 12.7899C12.6171 12.8836 12.5065 12.958 12.3846 13.0088C12.2628 13.0595 12.1321 13.0857 12.0001 13.0857C11.868 13.0857 11.7373 13.0595 11.6155 13.0088C11.4936 12.958 11.383 12.8836 11.2901 12.7899L6.71006 8.20986C6.6171 8.11613 6.5065 8.04174 6.38464 7.99097C6.26278 7.9402 6.13207 7.91406 6.00006 7.91406C5.86805 7.91406 5.73734 7.9402 5.61548 7.99097C5.49362 8.04174 5.38302 8.11613 5.29006 8.20986C5.10381 8.39722 4.99927 8.65067 4.99927 8.91486C4.99927 9.17905 5.10381 9.4325 5.29006 9.61986L9.88006 14.2099C10.4426 14.7717 11.2051 15.0872 12.0001 15.0872C12.7951 15.0872 13.5576 14.7717 14.1201 14.2099L18.7101 9.61986C18.8963 9.4325 19.0009 9.17905 19.0009 8.91486C19.0009 8.65067 18.8963 8.39722 18.7101 8.20986Z" fill="#4C1D95"/>
</svg>
