<svg width="20" height="20" viewBox="0 0 20 20" fill="none" xmlns="http://www.w3.org/2000/svg">
<path opacity="0.4" d="M10.8334 3.33398H9.16675C5.02461 3.33398 1.66675 6.69185 1.66675 10.834V15.0007C1.66675 16.8416 3.15913 18.334 5.00008 18.334H10.8334C14.9756 18.334 18.3334 14.9761 18.3334 10.834C18.3334 6.69185 14.9756 3.33398 10.8334 3.33398Z" fill="#8247FF"/>
<path d="M18.3334 5.00033C18.3334 6.84127 16.841 8.33366 15.0001 8.33366C13.1591 8.33366 11.6667 6.84127 11.6667 5.00033C11.6667 3.15938 13.1591 1.66699 15.0001 1.66699C16.841 1.66699 18.3334 3.15938 18.3334 5.00033Z" fill="#8247FF"/>
<path fill-rule="evenodd" clip-rule="evenodd" d="M6.04175 9.16699C6.04175 8.82181 6.32157 8.54199 6.66675 8.54199H10.0001C10.3453 8.54199 10.6251 8.82181 10.6251 9.16699C10.6251 9.51217 10.3453 9.79199 10.0001 9.79199H6.66675C6.32157 9.79199 6.04175 9.51217 6.04175 9.16699ZM6.04175 12.5003C6.04175 12.1551 6.32157 11.8753 6.66675 11.8753H13.3334C13.6786 11.8753 13.9584 12.1551 13.9584 12.5003C13.9584 12.8455 13.6786 13.1253 13.3334 13.1253H6.66675C6.32157 13.1253 6.04175 12.8455 6.04175 12.5003Z" fill="#8247FF"/>
</svg>
