<svg width="20" height="20" viewBox="0 0 20 20" fill="none" xmlns="http://www.w3.org/2000/svg">
<path d="M1.66675 3.66699C1.66675 2.56242 2.56218 1.66699 3.66675 1.66699H7.16675C8.27132 1.66699 9.16675 2.56242 9.16675 3.66699V5.50032C9.16675 6.60489 8.27132 7.50033 7.16675 7.50033H3.66675C2.56218 7.50033 1.66675 6.6049 1.66675 5.50033V3.66699Z" fill="#7C3AED"/>
<path opacity="0.4" d="M1.66675 11.167C1.66675 10.0624 2.56218 9.16699 3.66675 9.16699H7.16675C8.27132 9.16699 9.16675 10.0624 9.16675 11.167V16.3337C9.16675 17.4382 8.27132 18.3337 7.16675 18.3337H3.66675C2.56218 18.3337 1.66675 17.4382 1.66675 16.3337V11.167Z" fill="#7C3AED"/>
<path opacity="0.4" d="M10.8335 3.66699C10.8335 2.56242 11.7289 1.66699 12.8335 1.66699H16.3335C17.4381 1.66699 18.3335 2.56242 18.3335 3.66699V8.83366C18.3335 9.93823 17.4381 10.8337 16.3335 10.8337H12.8335C11.7289 10.8337 10.8335 9.93823 10.8335 8.83366V3.66699Z" fill="#7C3AED"/>
<path d="M10.8335 14.5C10.8335 13.3954 11.7289 12.5 12.8335 12.5H16.3335C17.4381 12.5 18.3335 13.3954 18.3335 14.5V16.3333C18.3335 17.4379 17.4381 18.3333 16.3335 18.3333H12.8335C11.7289 18.3333 10.8335 17.4379 10.8335 16.3333V14.5Z" fill="#7C3AED"/>
</svg>
