<svg width="20" height="20" viewBox="0 0 20 20" fill="none" xmlns="http://www.w3.org/2000/svg">
<path d="M12.8653 9.85661V8.98691L13.7346 9.37781C14.2646 9.61616 14.8721 9.61219 15.3989 9.36693L16.2983 8.94824V9.85661C16.2983 10.8046 15.5298 11.5731 14.5819 11.5731C13.6338 11.5731 12.8653 10.8046 12.8653 9.85661Z" stroke="#28303F" stroke-width="1.5" stroke-linecap="round"/>
<path d="M17.9349 7.84219L15.0837 6.57498C14.7563 6.42943 14.3824 6.42943 14.055 6.57498L11.2037 7.84219C11.0366 7.91647 11.0366 8.15369 11.2037 8.22798L14.055 9.49518C14.3824 9.64073 14.7563 9.64073 15.0837 9.49518L17.9349 8.22798C18.1021 8.15369 18.1021 7.91647 17.9349 7.84219Z" stroke="#28303F" stroke-width="1.5" stroke-linecap="round" stroke-linejoin="round"/>
<path d="M12.8924 12.8766C12.9782 12.8464 13.0663 12.8184 13.1564 12.7928C13.3025 12.7512 13.4588 12.7958 13.5659 12.9006L14.2591 13.5787C14.4299 13.7458 14.7088 13.7458 14.8796 13.5787L15.5728 12.9006C15.6799 12.7958 15.8362 12.7512 15.9823 12.7928C17.2064 13.141 18.0603 13.9279 18.0603 14.8428C18.0603 15.3091 17.6696 15.6872 17.1876 15.6872H13.886" stroke="#28303F" stroke-width="1.5" stroke-linecap="round" stroke-linejoin="round"/>
<line x1="11.4956" y1="8.78516" x2="11.4956" y2="9.92377" stroke="#28303F" stroke-width="1.5" stroke-linecap="round"/>
<path d="M4.58163 8.19838V6.83497L6.3585 7.49717C6.80899 7.66505 7.30487 7.66505 7.75536 7.49717L9.53223 6.83497V8.19838C9.53223 9.56544 8.424 10.6737 7.05693 10.6737C5.68986 10.6737 4.58163 9.56544 4.58163 8.19838Z" stroke="#28303F" stroke-width="1.5" stroke-linecap="round"/>
<path d="M11.9901 5.06238L7.81083 3.20493C7.33081 2.99159 6.78288 2.99159 6.30286 3.20493L2.1236 5.06238C1.8786 5.17126 1.8786 5.51898 2.1236 5.62786L6.30286 7.48531C6.78288 7.69865 7.33081 7.69865 7.81083 7.48531L11.9901 5.62786C12.2351 5.51898 12.2351 5.17126 11.9901 5.06238Z" stroke="#28303F" stroke-width="1.5" stroke-linecap="round" stroke-linejoin="round"/>
<path d="M5.58599 12.4932L6.60205 13.4872C6.8524 13.7321 7.26128 13.7321 7.51163 13.4872L8.52769 12.4932C8.68465 12.3396 8.91379 12.2742 9.12794 12.3351C10.9222 12.8456 12.1738 13.999 12.1738 15.34C12.1738 16.0236 11.6011 16.5777 10.8946 16.5777H3.2191C2.51259 16.5777 1.93985 16.0236 1.93985 15.34C1.93985 13.999 3.19151 12.8456 4.98574 12.3351C5.19989 12.2742 5.42903 12.3396 5.58599 12.4932Z" stroke="#28303F" stroke-width="1.5" stroke-linecap="round" stroke-linejoin="round"/>
<line x1="2.79224" y1="6.19336" x2="2.79224" y2="8.46321" stroke="#28303F" stroke-width="1.5" stroke-linecap="round"/>
</svg>
