<svg width="21" height="20" viewBox="0 0 21 20" fill="none" xmlns="http://www.w3.org/2000/svg">
<path d="M14.5899 0C14.6364 0 14.6829 0 14.7321 0C14.8463 1.41044 14.3079 2.46432 13.6537 3.22751C13.0117 3.98542 12.1326 4.7205 10.7107 4.60897C10.6158 3.21872 11.1551 2.24301 11.8085 1.48158C12.4145 0.771967 13.5254 0.140517 14.5899 0Z" fill="#64748B"/>
<path d="M18.8957 14.68C18.8957 14.694 18.8957 14.7063 18.8957 14.7195C18.4961 15.9297 17.9262 16.9669 17.2306 17.9295C16.5956 18.8033 15.8175 19.9793 14.4282 19.9793C13.2276 19.9793 12.4302 19.2073 11.1998 19.1862C9.89823 19.1651 9.18247 19.8317 7.99247 19.9995C7.85634 19.9995 7.72021 19.9995 7.58672 19.9995C6.71288 19.873 6.00766 19.1809 5.49389 18.5574C3.97894 16.7149 2.80826 14.3348 2.59045 11.2891C2.59045 10.9905 2.59045 10.6928 2.59045 10.3942C2.68267 8.21444 3.74182 6.44217 5.14963 5.58326C5.89261 5.12658 6.91399 4.73752 8.05131 4.91141C8.53873 4.98694 9.03668 5.1538 9.47317 5.31891C9.88681 5.47787 10.4041 5.75978 10.8941 5.74485C11.2261 5.73519 11.5563 5.56218 11.8909 5.4401C12.871 5.08618 13.8318 4.68043 15.0982 4.87101C16.6202 5.10111 17.7005 5.77735 18.3679 6.82069C17.0804 7.64008 16.0625 8.87487 16.2364 10.9835C16.391 12.8989 17.5046 14.0196 18.8957 14.68Z" fill="#64748B"/>
</svg>
