<svg width="21" height="21" viewBox="0 0 21 21" fill="none" xmlns="http://www.w3.org/2000/svg">
<g clip-path="url(#clip0_82_18807)">
<path d="M18 8.83366V6.75033C18 4.90938 16.5076 3.41699 14.6667 3.41699H6.33333C4.49238 3.41699 3 4.90938 3 6.75033V15.5003C3 17.3413 4.49238 18.8337 6.33333 18.8337H8M7.16667 2.16699V4.66699M13.8333 2.16699V4.66699M10.5 18.8337L13.0506 18.1065C13.1874 18.0675 13.3119 17.9943 13.4125 17.8938L17.5915 13.7147C18.1362 13.17 18.1362 12.2869 17.5915 11.7422C17.0468 11.1975 16.1636 11.1975 15.6189 11.7422L11.4399 15.9212C11.3394 16.0217 11.2661 16.1463 11.2271 16.283L10.5 18.8337Z" stroke="#F0FDF4" stroke-width="1.8" stroke-linecap="round"/>
</g>
<defs>
<clipPath id="clip0_82_18807">
<rect width="20" height="20" fill="white" transform="translate(0.5 0.5)"/>
</clipPath>
</defs>
</svg>
