<svg width="20" height="20" viewBox="0 0 20 20" fill="none" xmlns="http://www.w3.org/2000/svg">
<path opacity="0.4" d="M10.7955 2.5H9.20454C8.3259 2.5 7.61363 3.17157 7.61363 4C7.61363 4.94801 6.5993 5.55073 5.76667 5.09747L5.6821 5.05144C4.92117 4.63722 3.94819 4.88304 3.50887 5.60048L2.71341 6.89951C2.27409 7.61695 2.5348 8.53434 3.29572 8.94855C4.12876 9.40202 4.12876 10.598 3.29572 11.0514C2.5348 11.4657 2.27409 12.383 2.71341 13.1005L3.50887 14.3995C3.94818 15.117 4.92117 15.3628 5.6821 14.9486L5.76667 14.9025C6.5993 14.4493 7.61363 15.052 7.61363 16C7.61363 16.8284 8.3259 17.5 9.20454 17.5H10.7955C11.6741 17.5 12.3864 16.8284 12.3864 16C12.3864 15.052 13.4007 14.4493 14.2333 14.9025L14.3179 14.9486C15.0788 15.3628 16.0518 15.117 16.4911 14.3995L17.2866 13.1005C17.7259 12.383 17.4652 11.4657 16.7043 11.0514C15.8712 10.598 15.8712 9.40203 16.7043 8.94856C17.4652 8.53435 17.7259 7.61696 17.2866 6.89952L16.4911 5.60049C16.0518 4.88305 15.0788 4.63723 14.3179 5.05145L14.2333 5.09748C13.4007 5.55074 12.3864 4.94801 12.3864 4C12.3864 3.17157 11.6741 2.5 10.7955 2.5Z" fill="#8247FF"/>
<circle cx="10" cy="10" r="2.5" fill="#8247FF"/>
</svg>
