<svg width="20" height="22" viewBox="0 0 20 22" fill="none" xmlns="http://www.w3.org/2000/svg">
<path fill-rule="evenodd" clip-rule="evenodd" d="M3.12442 0.289062C1.47841 0.289062 0.144043 1.62342 0.144043 3.26944V12.1273C0.144043 17.42 4.43463 21.7106 9.72734 21.7106C15.0201 21.7106 19.3106 17.42 19.3106 12.1273V3.26944C19.3106 1.62342 17.9763 0.289062 16.3303 0.289062H3.12442ZM9.61898 5.55048L3.51197 8.65096C3.26143 8.74491 2.89188 9.02677 3.41802 9.40259C3.69474 9.60025 4.10453 9.83117 4.48642 10.0464L4.48643 10.0464C5.01216 10.3426 5.485 10.6091 5.485 10.7179C5.485 10.8683 5.54764 12.7849 5.57896 13.7245C5.92346 14.6014 7.21376 16.374 9.61898 16.4491C12.0242 16.374 13.3145 14.6014 13.659 13.7245C13.6903 12.7849 13.7529 10.8683 13.7529 10.7179C13.7529 10.6091 14.2258 10.3426 14.7515 10.0464L14.7515 10.0464C15.1334 9.83117 15.5432 9.60025 15.8199 9.40259C16.3461 9.02677 15.9765 8.74491 15.726 8.65096L9.61898 5.55048Z" fill="white"/>
</svg>
