<svg width="20" height="20" viewBox="0 0 20 20" fill="none" xmlns="http://www.w3.org/2000/svg">
<path opacity="0.4" d="M17.2368 8.22655L7.87794 3.54995C6.21339 2.71818 4.42235 4.42863 5.17818 6.12821L6.54182 9.19454C6.76977 9.70712 6.76977 10.2922 6.54182 10.8048L5.17818 13.8711C4.42235 15.5707 6.21339 17.2812 7.87793 16.4494L17.2368 11.7728C18.6988 11.0422 18.6988 8.95712 17.2368 8.22655Z" fill="#8247FF"/>
<path fill-rule="evenodd" clip-rule="evenodd" d="M6.45841 9.99967C6.45841 9.6545 6.73824 9.37467 7.08341 9.37467H10.0001C10.3453 9.37467 10.6251 9.6545 10.6251 9.99967C10.6251 10.3449 10.3453 10.6247 10.0001 10.6247H7.08341C6.73824 10.6247 6.45841 10.3449 6.45841 9.99967Z" fill="#8247FF"/>
<path fill-rule="evenodd" clip-rule="evenodd" d="M1.04175 8.33301C1.04175 7.98783 1.32157 7.70801 1.66675 7.70801H3.33341C3.67859 7.70801 3.95841 7.98783 3.95841 8.33301C3.95841 8.67819 3.67859 8.95801 3.33341 8.95801H1.66675C1.32157 8.95801 1.04175 8.67819 1.04175 8.33301Z" fill="#8247FF"/>
<path fill-rule="evenodd" clip-rule="evenodd" d="M1.04175 11.6663C1.04175 11.3212 1.32157 11.0413 1.66675 11.0413H3.33341C3.67859 11.0413 3.95841 11.3212 3.95841 11.6663C3.95841 12.0115 3.67859 12.2913 3.33341 12.2913H1.66675C1.32157 12.2913 1.04175 12.0115 1.04175 11.6663Z" fill="#8247FF"/>
</svg>
