<svg width="20" height="20" viewBox="0 0 20 20" fill="none" xmlns="http://www.w3.org/2000/svg">
<path opacity="0.4" d="M6.66675 4.16667V10.8333C6.66675 11.7538 7.41294 12.5 8.33341 12.5H16.6667C17.5872 12.5 18.3334 11.7538 18.3334 10.8333V4.16667C18.3334 3.24619 17.5872 2.5 16.6667 2.5H8.33341C7.41294 2.5 6.66675 3.24619 6.66675 4.16667Z" fill="#8247FF"/>
<path fill-rule="evenodd" clip-rule="evenodd" d="M4.5835 11.2503C4.5835 10.0997 5.51624 9.16699 6.66683 9.16699C7.81742 9.16699 8.75016 10.0997 8.75016 11.2503C8.75016 12.4009 7.81742 13.3337 6.66683 13.3337C5.51624 13.3337 4.5835 12.4009 4.5835 11.2503Z" fill="#8247FF"/>
<path fill-rule="evenodd" clip-rule="evenodd" d="M11.927 11.932C12.2408 12.0758 12.3786 12.4468 12.2348 12.7606C11.7306 13.8606 9.94355 15.8524 6.66662 15.8524C3.88295 15.8524 2.5156 17.2535 2.21426 17.8014C2.04791 18.1038 1.66787 18.2141 1.36542 18.0478C1.06297 17.8814 0.952637 17.5014 1.11899 17.199C1.65097 16.2317 3.45029 14.6024 6.66662 14.6024C9.38969 14.6024 10.7693 12.9579 11.0985 12.2397C11.2423 11.926 11.6132 11.7882 11.927 11.932Z" fill="#8247FF"/>
<path fill-rule="evenodd" clip-rule="evenodd" d="M9.375 5.83301C9.375 5.48783 9.65482 5.20801 10 5.20801L15 5.20801C15.3452 5.20801 15.625 5.48783 15.625 5.83301C15.625 6.17819 15.3452 6.45801 15 6.45801L10 6.45801C9.65482 6.45801 9.375 6.17819 9.375 5.83301Z" fill="#8247FF"/>
<path fill-rule="evenodd" clip-rule="evenodd" d="M11.875 9.16699C11.875 8.82181 12.1548 8.54199 12.5 8.54199H15C15.3452 8.54199 15.625 8.82181 15.625 9.16699C15.625 9.51217 15.3452 9.79199 15 9.79199H12.5C12.1548 9.79199 11.875 9.51217 11.875 9.16699Z" fill="#8247FF"/>
</svg>
