<svg width="20" height="20" viewBox="0 0 20 20" fill="none" xmlns="http://www.w3.org/2000/svg">
<path opacity="0.4" d="M17.5 15.0007V6.66732C17.5 4.82637 16.0076 3.33398 14.1667 3.33398H6.66667H5.83333C3.99238 3.33398 2.5 4.82637 2.5 6.66732V15.0007C2.5 16.8416 3.99238 18.334 5.83333 18.334H14.1667C16.0076 18.334 17.5 16.8416 17.5 15.0007Z" fill="#8247FF"/>
<rect x="6.66675" y="1.66699" width="6.66667" height="3.33333" rx="1.66667" fill="#8247FF"/>
<path fill-rule="evenodd" clip-rule="evenodd" d="M6.04175 8.33398C6.04175 7.98881 6.32157 7.70898 6.66675 7.70898H13.3334C13.6786 7.70898 13.9584 7.98881 13.9584 8.33398C13.9584 8.67916 13.6786 8.95898 13.3334 8.95898H6.66675C6.32157 8.95898 6.04175 8.67916 6.04175 8.33398Z" fill="#8247FF"/>
<path fill-rule="evenodd" clip-rule="evenodd" d="M6.04175 11.667C6.04175 11.3218 6.32157 11.042 6.66675 11.042H13.3334C13.6786 11.042 13.9584 11.3218 13.9584 11.667C13.9584 12.0122 13.6786 12.292 13.3334 12.292H6.66675C6.32157 12.292 6.04175 12.0122 6.04175 11.667Z" fill="#8247FF"/>
<path fill-rule="evenodd" clip-rule="evenodd" d="M6.04175 15C6.04175 14.6548 6.32157 14.375 6.66675 14.375H10.0001C10.3453 14.375 10.6251 14.6548 10.6251 15C10.6251 15.3452 10.3453 15.625 10.0001 15.625H6.66675C6.32157 15.625 6.04175 15.3452 6.04175 15Z" fill="#8247FF"/>
</svg>
