<svg width="10" height="10" viewBox="0 0 10 10" fill="none" xmlns="http://www.w3.org/2000/svg">
<g clip-path="url(#clip0_82_19129)">
<path d="M8.09604 3.52998L4.61865 0.980086C4.34704 0.7812 4.02567 0.661408 3.69015 0.633988C3.35463 0.606568 3.01807 0.67259 2.71778 0.824738C2.41749 0.976886 2.16519 1.20921 1.98885 1.49597C1.81251 1.78273 1.71903 2.11272 1.71875 2.44936V7.5517C1.71823 7.88867 1.81123 8.21917 1.9874 8.50642C2.16356 8.79367 2.41599 9.02639 2.71658 9.17869C3.01717 9.33098 3.35412 9.39688 3.68993 9.36903C4.02575 9.34119 4.34725 9.2207 4.61865 9.02097L8.09604 6.47108C8.32678 6.30174 8.51441 6.08046 8.64373 5.82514C8.77305 5.56983 8.84044 5.28764 8.84044 5.00144C8.84044 4.71524 8.77305 4.43305 8.64373 4.17773C8.51441 3.92242 8.32678 3.70113 8.09604 3.5318V3.52998Z" fill="#8247FF"/>
</g>
<defs>
<clipPath id="clip0_82_19129">
<rect width="8.75" height="8.75" fill="white" transform="translate(0.625 0.625)"/>
</clipPath>
</defs>
</svg>
