<svg width="21" height="20" viewBox="0 0 21 20" fill="none" xmlns="http://www.w3.org/2000/svg">
<path d="M16.0917 6.84123C16.0142 6.76312 15.922 6.70112 15.8205 6.65882C15.7189 6.61651 15.61 6.59473 15.5 6.59473C15.39 6.59473 15.2811 6.61651 15.1795 6.65882C15.078 6.70112 14.9858 6.76312 14.9083 6.84123L11.0917 10.6579C11.0142 10.736 10.922 10.798 10.8205 10.8403C10.7189 10.8826 10.61 10.9044 10.5 10.9044C10.39 10.9044 10.2811 10.8826 10.1795 10.8403C10.078 10.798 9.98581 10.736 9.90834 10.6579L6.09168 6.84123C6.01421 6.76312 5.92204 6.70112 5.82049 6.65882C5.71894 6.61651 5.61002 6.59473 5.50001 6.59473C5.39 6.59473 5.28108 6.61651 5.17953 6.65882C5.07798 6.70112 4.98581 6.76312 4.90834 6.84123C4.75313 6.99736 4.66602 7.20857 4.66602 7.42873C4.66602 7.64888 4.75313 7.86009 4.90834 8.01623L8.73334 11.8412C9.20209 12.3094 9.83751 12.5724 10.5 12.5724C11.1625 12.5724 11.7979 12.3094 12.2667 11.8412L16.0917 8.01623C16.2469 7.86009 16.334 7.64888 16.334 7.42873C16.334 7.20857 16.2469 6.99736 16.0917 6.84123Z" fill="#475569"/>
</svg>
