<svg width="20" height="20" viewBox="0 0 20 20" fill="none" xmlns="http://www.w3.org/2000/svg">
<path fill-rule="evenodd" clip-rule="evenodd" d="M10.625 15.8271V17.7087H12.5C12.8452 17.7087 13.125 17.9885 13.125 18.3337C13.125 18.6789 12.8452 18.9587 12.5 18.9587H7.5C7.15482 18.9587 6.875 18.6789 6.875 18.3337C6.875 17.9885 7.15482 17.7087 7.5 17.7087H9.375V15.8271H10.625Z" fill="#8247FF"/>
<path opacity="0.4" d="M1.66675 5.00033C1.66675 3.15938 3.15913 1.66699 5.00008 1.66699H15.0001C16.841 1.66699 18.3334 3.15938 18.3334 5.00033V12.5003C18.3334 14.3413 16.841 15.8337 15.0001 15.8337H5.00008C3.15913 15.8337 1.66675 14.3413 1.66675 12.5003V5.00033Z" fill="#8247FF"/>
<ellipse cx="1.66667" cy="1.66667" rx="1.66667" ry="1.66667" transform="matrix(1 0 0 -1 8.3335 8.33398)" fill="#8247FF"/>
<rect x="6.66675" y="9.16699" width="6.66667" height="3.33333" rx="1.66667" fill="#8247FF"/>
</svg>
