<svg width="20" height="20" viewBox="0 0 20 20" fill="none" xmlns="http://www.w3.org/2000/svg">
<path opacity="0.4" d="M10.8333 17.5003V12.917H14.1666V17.5003L12.4999 16.667L10.8333 17.5003Z" fill="#8247FF"/>
<path opacity="0.4" d="M18.3333 12.5L18.3333 4.16667C18.3333 3.24619 17.5871 2.5 16.6666 2.5L3.33325 2.5C2.41278 2.5 1.66658 3.24619 1.66658 4.16667L1.66658 12.5C1.66658 13.4205 2.41278 14.1667 3.33325 14.1667L7.91659 14.1667L16.6666 14.1667C17.5871 14.1667 18.3333 13.4205 18.3333 12.5Z" fill="#8247FF"/>
<path d="M15 12.5C15 13.8807 13.8807 15 12.5 15C11.1193 15 10 13.8807 10 12.5C10 11.1193 11.1193 10 12.5 10C13.8807 10 15 11.1193 15 12.5Z" fill="#8247FF"/>
<path fill-rule="evenodd" clip-rule="evenodd" d="M4.375 5.83301C4.375 5.48783 4.65482 5.20801 5 5.20801H15C15.3452 5.20801 15.625 5.48783 15.625 5.83301C15.625 6.17819 15.3452 6.45801 15 6.45801H5C4.65482 6.45801 4.375 6.17819 4.375 5.83301Z" fill="#8247FF"/>
<path fill-rule="evenodd" clip-rule="evenodd" d="M4.375 9.16699C4.375 8.82181 4.65482 8.54199 5 8.54199H8.33333C8.67851 8.54199 8.95833 8.82181 8.95833 9.16699C8.95833 9.51217 8.67851 9.79199 8.33333 9.79199H5C4.65482 9.79199 4.375 9.51217 4.375 9.16699Z" fill="#8247FF"/>
</svg>
