<svg width="21" height="20" viewBox="0 0 21 20" fill="none" xmlns="http://www.w3.org/2000/svg">
<path d="M15.5 11.667L16.4596 10.7074C16.8501 10.3169 16.8501 9.68374 16.4596 9.29322L15.5 8.33366" stroke="#475569" stroke-width="1.5" stroke-linecap="round" stroke-linejoin="round"/>
<path d="M16.3334 10L11.3334 10M3.83337 14.3886V6.05527M13.8334 14.3886C13.8334 15.3091 13.0872 16.0553 12.1667 16.0553H8.83337M13.8334 6.05527C13.8334 5.1348 13.0872 4.38861 12.1667 4.38861H8.83337M4.57554 16.5501L6.24221 17.6612C7.3498 18.3996 8.83337 17.6056 8.83337 16.2744V4.16947C8.83337 2.83831 7.3498 2.04432 6.24221 2.78272L4.57554 3.89383C4.11188 4.20294 3.83337 4.72333 3.83337 5.28058V15.1633C3.83337 15.7206 4.11188 16.2409 4.57554 16.5501Z" stroke="#475569" stroke-width="1.5" stroke-linecap="round"/>
</svg>
