<svg width="21" height="20" viewBox="0 0 21 20" fill="none" xmlns="http://www.w3.org/2000/svg">
<g clip-path="url(#clip0_144_42778)">
<path d="M4.6751 12.0855L3.97893 14.6845L1.43443 14.7383C0.674004 13.3279 0.242676 11.7141 0.242676 9.9993C0.242676 8.34105 0.645957 6.7773 1.3608 5.40039H1.36135L3.62666 5.8157L4.619 8.06742C4.41131 8.67293 4.29811 9.32293 4.29811 9.9993C4.29818 10.7334 4.43115 11.4367 4.6751 12.0855Z" fill="#8247FF"/>
<path d="M20.0669 8.13281C20.1817 8.73773 20.2416 9.36246 20.2416 10.0009C20.2416 10.7169 20.1663 11.4152 20.0229 12.0889C19.5361 14.3812 18.2641 16.3828 16.5021 17.7993L16.5015 17.7987L13.6482 17.6532L13.2444 15.1323C14.4136 14.4466 15.3274 13.3735 15.8087 12.0889H10.4614V8.13281H15.8867H20.0669Z" fill="#8247FF"/>
<path d="M16.5022 17.7975L16.5028 17.798C14.789 19.1755 12.6121 19.9996 10.2423 19.9996C6.43408 19.9996 3.12311 17.8711 1.43408 14.7387L4.67475 12.0859C5.51924 14.3398 7.69342 15.9442 10.2423 15.9442C11.3379 15.9442 12.3643 15.648 13.2451 15.131L16.5022 17.7975Z" fill="#28B446"/>
<path d="M16.6247 2.30219L13.3851 4.95437C12.4736 4.38461 11.3961 4.05547 10.2417 4.05547C7.63514 4.05547 5.42029 5.73348 4.61811 8.06812L1.36041 5.40109H1.35986C3.02416 2.1923 6.37689 0 10.2417 0C12.6681 0 14.8928 0.864297 16.6247 2.30219Z" fill="#F14336"/>
</g>
<defs>
<clipPath id="clip0_144_42778">
<rect width="20" height="20" fill="white" transform="translate(0.242676)"/>
</clipPath>
</defs>
</svg>
