<svg width="21" height="21" viewBox="0 0 21 21" fill="none" xmlns="http://www.w3.org/2000/svg">
<path d="M18.1087 8.71124C19.075 9.72797 19.075 11.2727 18.1087 12.2894C16.4788 14.0042 13.6797 16.3337 10.5001 16.3337C7.32049 16.3337 4.52133 14.0042 2.8915 12.2894C1.92516 11.2727 1.92516 9.72797 2.8915 8.71124C4.52132 6.99644 7.32049 4.66699 10.5001 4.66699C13.6797 4.66699 16.4788 6.99644 18.1087 8.71124Z" stroke="#EFF6FF" stroke-width="1.5"/>
<path d="M13.0001 10.5003C13.0001 11.881 11.8808 13.0003 10.5001 13.0003C9.11937 13.0003 8.00008 11.881 8.00008 10.5003C8.00008 9.11961 9.11937 8.00033 10.5001 8.00033C11.8808 8.00033 13.0001 9.11961 13.0001 10.5003Z" stroke="#EFF6FF" stroke-width="1.5"/>
</svg>
