<svg width="20" height="20" viewBox="0 0 20 20" fill="none" xmlns="http://www.w3.org/2000/svg">
<path d="M3.33341 3.33398L16.6667 16.6673M11.6667 11.8641C11.2245 12.2599 10.6404 12.5007 10.0001 12.5007C8.61937 12.5007 7.50008 11.3814 7.50008 10.0007C7.50008 9.36036 7.74079 8.77628 8.13666 8.33398M16.3399 13.0071C16.816 12.5925 17.2419 12.1756 17.6087 11.7897C18.575 10.773 18.575 9.22829 17.6087 8.21157C15.9788 6.49676 13.1797 4.16732 10.0001 4.16732C9.25727 4.16732 8.53522 4.29445 7.844 4.51118M5.41675 5.67014C4.20128 6.44602 3.16478 7.39797 2.3915 8.21157C1.42516 9.22829 1.42516 10.773 2.3915 11.7897C4.02132 13.5045 6.82048 15.834 10.0001 15.834C11.5568 15.834 13.0224 15.2756 14.3041 14.5043" stroke="#475569" stroke-width="1.5" stroke-linecap="round"/>
</svg>
